<svg width="70" height="70" viewBox="0 0 70 70" fill="none" xmlns="http://www.w3.org/2000/svg">
<path d="M56.8749 0H13.1249C9.10575 0 5.83325 3.2725 5.83325 7.29167V70H8.74992V61.25H61.2499V70H64.1666V7.29167C64.1666 3.2725 60.8941 0 56.8749 0ZM13.1249 2.91667H33.5416V8.75H36.4583V2.91667H56.8749C59.287 2.91667 61.2499 4.87958 61.2499 7.29167V14.5833H8.74992V7.29167C8.74992 4.87958 10.7128 2.91667 13.1249 2.91667ZM8.74992 43.75V32.0833H33.5416V37.9167H36.4583V32.0833H61.2499V43.75H8.74992ZM8.74992 29.1667V17.5H33.5416V23.3333H36.4583V17.5H61.2499V29.1667H8.74992ZM8.74992 58.3333V46.6667H33.5416V52.5H36.4583V46.6667H61.2499V58.3333H8.74992Z" fill="#8B5C2C"/>
</svg>
