<svg width="35" height="35" viewBox="0 0 35 35" fill="none" xmlns="http://www.w3.org/2000/svg">
<rect x="0.5" y="0.5" width="34" height="34" rx="9.5" stroke="#8B5C2C"/>
<path d="M30.8683 24.8752L24.3157 9.87516C24.0827 9.34172 23.5751 9 23.0163 9H18.4418L18.5567 10.0856C18.5801 10.3069 18.4062 10.5 18.1835 10.5H16.8167C16.594 10.5 16.4201 10.3069 16.4436 10.0856L16.5584 9H11.9839C11.4247 9 10.917 9.34172 10.6841 9.87516L4.13146 24.8752C3.69787 25.8684 4.38974 27 5.43177 27H14.6586L15.1419 22.4213C15.1822 22.0397 15.5037 21.75 15.8876 21.75H19.1126C19.4965 21.75 19.8181 22.0397 19.8584 22.4213L20.3417 27H29.5685C30.6105 27 31.3024 25.8684 30.8683 24.8752ZM16.2064 12.3356C16.2161 12.2435 16.2596 12.1582 16.3285 12.0962C16.3974 12.0342 16.4868 12 16.5795 12H18.4212C18.6129 12 18.7742 12.1448 18.7943 12.3356L19.0099 14.3784C19.0451 14.7108 18.7845 15 18.4507 15H16.5504C16.2162 15 15.9561 14.7108 15.9912 14.3784L16.2064 12.3356ZM18.7957 20.25H16.204C15.7587 20.25 15.4114 19.8642 15.4583 19.4213L15.6959 17.1713C15.7362 16.7897 16.0578 16.5 16.4417 16.5H18.5581C18.942 16.5 19.2635 16.7897 19.3039 17.1713L19.5415 19.4213C19.5884 19.8642 19.241 20.25 18.7957 20.25Z" fill="#8B5C2C"/>
</svg>
