<svg width="27" height="27" viewBox="0 0 27 27" fill="none" xmlns="http://www.w3.org/2000/svg">
<path d="M11.8389 23.666C12.7651 23.666 13.5137 24.4009 13.5137 25.3027C13.5135 26.2044 12.765 26.9375 11.8389 26.9375C10.9124 26.9374 10.1642 26.2043 10.1641 25.3027C10.1641 24.4009 10.9123 23.6661 11.8389 23.666ZM21.1826 23.666C22.1086 23.6663 22.8574 24.4011 22.8574 25.3027C22.8572 26.2042 22.1086 26.9372 21.1826 26.9375C20.2565 26.9375 19.508 26.2044 19.5078 25.3027C19.5078 24.4009 20.2564 23.666 21.1826 23.666ZM1.1123 0.0722656L3.35059 0.397461C4.89651 0.62098 6.14055 1.72658 6.5293 3.18457L6.5957 3.48047L6.90137 5.17676L6.91016 5.22461L6.95801 5.22754L24.2178 6.56348C25.0742 6.62982 25.8585 7.05884 26.3662 7.73633C26.8732 8.41186 27.0551 9.27103 26.8623 10.0879L25.5283 15.7373C25.2199 17.0454 24.0261 17.9736 22.6504 17.9736H9.20117L9.22754 18.0557L9.63281 19.3027C9.76081 19.9933 10.3774 20.4954 11.0938 20.4951H23.5674C24.0734 20.4954 24.4824 20.8971 24.4824 21.3887C24.4822 21.8796 24.0733 22.281 23.5674 22.2812H11.0938C9.48296 22.2806 8.10784 21.1508 7.82812 19.6035L4.79297 3.79004C4.63976 2.94338 3.94958 2.28875 3.08301 2.16309L0.842773 1.83887C0.341601 1.76638 -0.00186316 1.31176 0.0722656 0.825195C0.14631 0.339305 0.61095 0.000289982 1.1123 0.0722656ZM8.69043 14.4922L9.05859 16.4551L9.06836 16.5059H10.5449V14.4189H8.67676L8.69043 14.4922ZM11.7227 16.5059H14.2373V14.4189H11.7227V16.5059ZM15.415 16.5059H17.9287V14.4189H15.415V16.5059ZM19.1074 16.5059H21.6221V14.4189H19.1074V16.5059ZM22.7998 16.499L22.8711 16.4883C23.451 16.4019 23.927 15.9833 24.0635 15.4082L24.2793 14.4951L24.2979 14.4189H22.7998V16.499ZM8.00391 10.8301L8.45117 13.2188L8.46094 13.2695H10.5449V10.7559H7.99023L8.00391 10.8301ZM11.7227 13.2695H14.2373V10.7559H11.7227V13.2695ZM15.415 13.2695H17.9287V10.7559H15.415V13.2695ZM19.1074 13.2695H21.6221V10.7559H19.1074V13.2695ZM22.7998 13.2695H24.5674L24.5791 13.2217L25.1426 10.833L25.1611 10.7559H22.7998V13.2695ZM22.7998 9.6084H22.8623L25.3604 9.60742H25.418L25.4229 9.55078C25.4495 9.21587 25.3608 8.87883 25.1533 8.60254C24.9345 8.30992 24.6124 8.11288 24.2539 8.04688L24.0986 8.02637L22.8672 7.93066L22.7998 7.92578V9.6084ZM21.6221 7.83398L21.5645 7.83008L19.1748 7.64551L19.1074 7.64062V9.6084H21.6221V7.83398ZM17.9287 7.54883L17.8711 7.54395L15.4824 7.35938L15.415 7.35449V9.6084H17.9287V7.54883ZM14.2373 7.26367L14.1797 7.25879L11.79 7.07422L11.7227 7.06836V9.6084H14.2373V7.26367ZM10.5449 6.97656L10.4873 6.97168L7.31445 6.72656L7.2334 6.7207L7.24805 6.80078L7.76465 9.55664L7.77441 9.6084H10.5449V6.97656Z" fill="#8B5C2C" stroke="#8B5C2C" stroke-width="0.125"/>
</svg>
