<svg width="76" height="76" viewBox="0 0 76 76" fill="none" xmlns="http://www.w3.org/2000/svg">
<path d="M73.7466 62.1298C69.0557 62.1298 64.3496 62.1298 59.6587 62.1298C49.9714 62.1298 40.2688 62.1298 30.5815 62.1298C22.4832 62.1298 14.4003 62.1298 6.30205 62.1298C4.9116 62.1298 3.52115 62.1298 2.14598 62.1298C2.52797 62.5264 2.90996 62.9231 3.29195 63.3198C3.29195 56.0054 3.29195 48.691 3.29195 41.3766C3.29195 35.6489 3.29195 29.9211 3.29195 24.1934C2.90996 24.5901 2.52797 24.9867 2.14598 25.3834C6.83684 25.3834 11.543 25.3834 16.2339 25.3834C25.9212 25.3834 35.6238 25.3834 45.3111 25.3834C53.4093 25.3834 61.4923 25.3834 69.5905 25.3834C70.981 25.3834 72.3714 25.3834 73.7466 25.3834C73.3646 24.9867 72.9826 24.5901 72.6006 24.1934C72.6006 31.5078 72.6006 38.8221 72.6006 46.1365C72.6006 51.8643 72.6006 57.592 72.6006 63.3198C72.6006 64.8588 74.8926 64.8588 74.8926 63.3198C74.8926 56.0054 74.8926 48.691 74.8926 41.3766C74.8926 35.6489 74.8926 29.9211 74.8926 24.1934C74.8926 23.5429 74.3731 23.0034 73.7466 23.0034C69.0557 23.0034 64.3496 23.0034 59.6587 23.0034C49.9714 23.0034 40.2688 23.0034 30.5815 23.0034C22.4832 23.0034 14.4003 23.0034 6.30205 23.0034C4.9116 23.0034 3.52115 23.0034 2.14598 23.0034C1.51951 23.0034 1 23.5429 1 24.1934C1 31.5078 1 38.8221 1 46.1365C1 51.8643 1 57.592 1 63.3198C1 63.9703 1.51951 64.5097 2.14598 64.5097C6.83684 64.5097 11.543 64.5097 16.2339 64.5097C25.9212 64.5097 35.6238 64.5097 45.3111 64.5097C53.4093 64.5097 61.4923 64.5097 69.5905 64.5097C70.981 64.5097 72.3714 64.5097 73.7466 64.5097C75.2287 64.5097 75.2287 62.1298 73.7466 62.1298Z" fill="#8B5C2C"/>
<path d="M73.7466 62.13C69.0557 62.13 64.3496 62.13 59.6587 62.13C49.9714 62.13 40.2688 62.13 30.5815 62.13C22.4832 62.13 14.4003 62.13 6.30205 62.13C4.9116 62.13 3.52115 62.13 2.14598 62.13C2.52797 62.5267 2.90996 62.9233 3.29195 63.32C3.29195 55.4186 3.29195 47.5013 3.29195 39.5998C3.29195 38.5844 3.29195 37.5848 3.29195 36.5694C2.90996 36.966 2.52797 37.3627 2.14598 37.7593C6.83684 37.7593 11.543 37.7593 16.2339 37.7593C25.9212 37.7593 35.6238 37.7593 45.3111 37.7593C53.4093 37.7593 61.4923 37.7593 69.5905 37.7593C70.981 37.7593 72.3714 37.7593 73.7466 37.7593C73.3646 37.3627 72.9826 36.966 72.6006 36.5694C72.6006 44.4708 72.6006 52.3881 72.6006 60.2895C72.6006 61.305 72.6006 62.3046 72.6006 63.32C72.6006 64.859 74.8926 64.859 74.8926 63.32C74.8926 55.4186 74.8926 47.5013 74.8926 39.5998C74.8926 38.5844 74.8926 37.5848 74.8926 36.5694C74.8926 35.9188 74.3731 35.3794 73.7466 35.3794C69.0557 35.3794 64.3496 35.3794 59.6587 35.3794C49.9714 35.3794 40.2688 35.3794 30.5815 35.3794C22.4832 35.3794 14.4003 35.3794 6.30205 35.3794C4.9116 35.3794 3.52115 35.3794 2.14598 35.3794C1.51951 35.3794 1 35.9188 1 36.5694C1 44.4708 1 52.3881 1 60.2895C1 61.305 1 62.3046 1 63.32C1 63.9705 1.51951 64.51 2.14598 64.51C6.83684 64.51 11.543 64.51 16.2339 64.51C25.9212 64.51 35.6238 64.51 45.3111 64.51C53.4093 64.51 61.4923 64.51 69.5905 64.51C70.981 64.51 72.3714 64.51 73.7466 64.51C75.2287 64.51 75.2287 62.13 73.7466 62.13Z" fill="#8B5C2C"/>
<path d="M23.9185 24.1933C23.9185 31.5077 23.9185 38.8221 23.9185 46.1365C23.9185 51.8642 23.9185 57.5919 23.9185 63.3197C23.9185 64.8587 26.2104 64.8587 26.2104 63.3197C26.2104 56.0053 26.2104 48.6909 26.2104 41.3766C26.2104 35.6488 26.2104 29.9211 26.2104 24.1933C26.2104 22.6543 23.9185 22.6543 23.9185 24.1933Z" fill="#8B5C2C"/>
<path d="M73.7469 62.13C67.6045 62.13 61.462 62.13 55.3043 62.13C46.381 62.13 37.4423 62.13 28.519 62.13C27.3578 62.13 26.2118 62.13 25.0505 62.13C25.4325 62.5267 25.8145 62.9233 26.1965 63.32C26.1965 55.4186 26.1965 47.5013 26.1965 39.5998C26.1965 38.5844 26.1965 37.5848 26.1965 36.5694C25.8145 36.966 25.4325 37.3627 25.0505 37.7593C31.193 37.7593 37.3354 37.7593 43.4931 37.7593C52.4164 37.7593 61.3551 37.7593 70.2784 37.7593C71.4397 37.7593 72.5856 37.7593 73.7469 37.7593C73.3649 37.3627 72.9829 36.966 72.6009 36.5694C72.6009 44.4708 72.6009 52.3881 72.6009 60.2895C72.6009 61.305 72.6009 62.3046 72.6009 63.32C72.6009 64.859 74.8929 64.859 74.8929 63.32C74.8929 55.4186 74.8929 47.5013 74.8929 39.5998C74.8929 38.5844 74.8929 37.5848 74.8929 36.5694C74.8929 35.9188 74.3734 35.3794 73.7469 35.3794C67.6045 35.3794 61.462 35.3794 55.3043 35.3794C46.381 35.3794 37.4423 35.3794 28.519 35.3794C27.3578 35.3794 26.2118 35.3794 25.0505 35.3794C24.4241 35.3794 23.9045 35.9188 23.9045 36.5694C23.9045 44.4708 23.9045 52.3881 23.9045 60.2895C23.9045 61.305 23.9045 62.3046 23.9045 63.32C23.9045 63.9705 24.4241 64.51 25.0505 64.51C31.193 64.51 37.3354 64.51 43.4931 64.51C52.4164 64.51 61.3551 64.51 70.2784 64.51C71.4397 64.51 72.5856 64.51 73.7469 64.51C75.229 64.51 75.229 62.13 73.7469 62.13Z" fill="#8B5C2C"/>
<path d="M48.26 36.5693C48.26 44.4707 48.26 52.388 48.26 60.2895C48.26 61.3049 48.26 62.3045 48.26 63.3199C48.26 64.859 50.552 64.859 50.552 63.3199C50.552 55.4185 50.552 47.5012 50.552 39.5998C50.552 38.5843 50.552 37.5848 50.552 36.5693C50.552 35.0303 48.26 35.0303 48.26 36.5693Z" fill="#8B5C2C"/>
<path d="M46.0899 31.6983C48.3054 31.6983 50.521 31.6983 52.7365 31.6983C54.2187 31.6983 54.2187 29.3184 52.7365 29.3184C50.521 29.3184 48.3054 29.3184 46.0899 29.3184C44.6077 29.3184 44.6077 31.6983 46.0899 31.6983Z" fill="#8B5C2C"/>
<path d="M73.7469 35.3792C67.6045 35.3792 61.462 35.3792 55.3043 35.3792C46.381 35.3792 37.4423 35.3792 28.519 35.3792C27.3578 35.3792 26.2118 35.3792 25.0505 35.3792C25.4325 35.7758 25.8145 36.1725 26.1965 36.5691C26.1965 32.4439 26.1965 28.3186 26.1965 24.1934C25.8145 24.5901 25.4325 24.9867 25.0505 25.3834C31.193 25.3834 37.3354 25.3834 43.4931 25.3834C52.4164 25.3834 61.3551 25.3834 70.2784 25.3834C71.4397 25.3834 72.5856 25.3834 73.7469 25.3834C73.3649 24.9867 72.9829 24.5901 72.6009 24.1934C72.6009 28.3186 72.6009 32.4439 72.6009 36.5691C72.6009 38.1082 74.8929 38.1082 74.8929 36.5691C74.8929 32.4439 74.8929 28.3186 74.8929 24.1934C74.8929 23.5429 74.3734 23.0034 73.7469 23.0034C67.6045 23.0034 61.462 23.0034 55.3043 23.0034C46.381 23.0034 37.4423 23.0034 28.519 23.0034C27.3578 23.0034 26.2118 23.0034 25.0505 23.0034C24.4241 23.0034 23.9045 23.5429 23.9045 24.1934C23.9045 28.3186 23.9045 32.4439 23.9045 36.5691C23.9045 37.2196 24.4241 37.7591 25.0505 37.7591C31.193 37.7591 37.3354 37.7591 43.4931 37.7591C52.4164 37.7591 61.3551 37.7591 70.2784 37.7591C71.4397 37.7591 72.5856 37.7591 73.7469 37.7591C75.229 37.7591 75.229 35.3792 73.7469 35.3792Z" fill="#8B5C2C"/>
<path d="M20.7262 57.7668C15.9743 57.7668 11.2376 57.7668 6.48558 57.7668C6.86757 58.1635 7.24956 58.5601 7.63155 58.9568C7.63155 52.9435 7.63155 46.946 7.63155 40.9327C7.24956 41.3293 6.86757 41.726 6.48558 42.1226C11.2376 42.1226 15.9743 42.1226 20.7262 42.1226C20.3443 41.726 19.9623 41.3293 19.5803 40.9327C19.5803 46.946 19.5803 52.9435 19.5803 58.9568C19.5803 60.4958 21.8722 60.4958 21.8722 58.9568C21.8722 52.9435 21.8722 46.946 21.8722 40.9327C21.8722 40.2821 21.3527 39.7427 20.7262 39.7427C15.9743 39.7427 11.2376 39.7427 6.48558 39.7427C5.85911 39.7427 5.3396 40.2821 5.3396 40.9327C5.3396 46.946 5.3396 52.9435 5.3396 58.9568C5.3396 59.6073 5.85911 60.1468 6.48558 60.1468C11.2376 60.1468 15.9743 60.1468 20.7262 60.1468C22.1931 60.1468 22.1931 57.7668 20.7262 57.7668Z" fill="#8B5C2C"/>
<path d="M25.0655 62.13C17.7007 62.13 10.3512 62.13 2.98636 62.13C2.71133 62.13 2.42101 62.13 2.14598 62.13C2.52797 62.5267 2.90996 62.9233 3.29195 63.32C3.29195 55.4186 3.29195 47.5013 3.29195 39.5998C3.29195 38.5844 3.29195 37.5848 3.29195 36.5694C2.90996 36.966 2.52797 37.3627 2.14598 37.7593C9.51079 37.7593 16.8603 37.7593 24.2251 37.7593C24.5002 37.7593 24.7905 37.7593 25.0655 37.7593C24.6835 37.3627 24.3015 36.966 23.9195 36.5694C23.9195 44.4708 23.9195 52.3881 23.9195 60.2895C23.9195 61.305 23.9195 62.3046 23.9195 63.32C23.9195 64.859 26.2115 64.859 26.2115 63.32C26.2115 55.4186 26.2115 47.5013 26.2115 39.5998C26.2115 38.5844 26.2115 37.5848 26.2115 36.5694C26.2115 35.9188 25.692 35.3794 25.0655 35.3794C17.7007 35.3794 10.3512 35.3794 2.98636 35.3794C2.71133 35.3794 2.42101 35.3794 2.14598 35.3794C1.51951 35.3794 1 35.9188 1 36.5694C1 44.4708 1 52.3881 1 60.2895C1 61.305 1 62.3046 1 63.32C1 63.9705 1.51951 64.51 2.14598 64.51C9.51079 64.51 16.8603 64.51 24.2251 64.51C24.5002 64.51 24.7905 64.51 25.0655 64.51C26.5476 64.51 26.5476 62.13 25.0655 62.13Z" fill="#8B5C2C"/>
<path d="M45.1723 53.4033C45.1723 51.1027 45.1723 48.8021 45.1723 46.5014C45.1723 44.9624 42.8804 44.9624 42.8804 46.5014C42.8804 48.8021 42.8804 51.1027 42.8804 53.4033C42.8804 54.9265 45.1723 54.9265 45.1723 53.4033Z" fill="#8B5C2C"/>
<path d="M55.9304 53.4033C55.9304 51.1027 55.9304 48.8021 55.9304 46.5014C55.9304 44.9624 53.6384 44.9624 53.6384 46.5014C53.6384 48.8021 53.6384 51.1027 53.6384 53.4033C53.6384 54.9265 55.9304 54.9265 55.9304 53.4033Z" fill="#8B5C2C"/>
<path d="M10.152 30.5081C10.0756 32.3644 7.46282 32.3644 7.38642 30.5081C7.3253 28.6676 10.0909 28.6676 10.152 30.5081C10.2132 32.0313 12.5051 32.0471 12.444 30.5081C12.3676 28.3661 10.8244 26.7795 8.77687 26.7002C6.72939 26.6208 5.18615 28.5089 5.10975 30.5081C5.03335 32.6342 6.85163 34.2367 8.77687 34.316C10.8244 34.3953 12.3676 32.5072 12.444 30.5081C12.5051 28.9849 10.2132 28.9849 10.152 30.5081Z" fill="#8B5C2C"/>
<path d="M19.8095 30.5081C19.7331 32.3644 17.1203 32.3644 17.0439 30.5081C16.9675 28.6676 19.7331 28.6676 19.8095 30.5081C19.8706 32.0313 22.1626 32.0471 22.1015 30.5081C22.0251 28.3661 20.4818 26.7795 18.4343 26.7002C16.3869 26.6208 14.8436 28.5089 14.7672 30.5081C14.6908 32.6342 16.5091 34.2367 18.4343 34.316C20.4818 34.3953 22.0251 32.5072 22.1015 30.5081C22.1626 28.9849 19.8706 28.9849 19.8095 30.5081Z" fill="#8B5C2C"/>
<path d="M5.58571 22.4322C5.98298 23.2255 6.38025 24.0188 6.77752 24.7962C6.96088 25.1612 7.37343 25.3833 7.7707 25.3833C11.6517 25.3833 15.5481 25.3833 19.4291 25.3833C19.8111 25.3833 20.2389 25.1612 20.4223 24.7962C21.4307 22.8129 22.5462 20.909 22.5462 18.5766C22.5462 17.0852 22.5462 15.6096 22.5462 14.1182C22.5462 13.4677 22.0267 12.9282 21.4002 12.9282C16.1898 12.9282 10.9947 12.9282 5.78434 12.9282C5.15788 12.9282 4.63837 13.4677 4.63837 14.1182C4.65365 16.9265 4.33277 19.8459 5.58571 22.4322C6.24273 23.8125 8.22909 22.6067 7.57207 21.2263C6.9456 19.9253 6.9456 18.6084 6.9456 17.1963C6.9456 16.165 6.9456 15.1495 6.9456 14.1182C6.56361 14.5149 6.18161 14.9115 5.79962 15.3082C11.01 15.3082 16.2051 15.3082 21.4155 15.3082C21.0335 14.9115 20.6515 14.5149 20.2695 14.1182C20.2695 15.5779 20.2695 17.0217 20.2695 18.4814C20.2695 20.4013 19.2763 21.9562 18.4512 23.5904C18.7874 23.4 19.1082 23.1937 19.4444 23.0033C15.5633 23.0033 11.667 23.0033 7.78598 23.0033C8.12213 23.1937 8.44301 23.4 8.77916 23.5904C8.38189 22.7971 7.98462 22.0038 7.58735 21.2263C6.8692 19.8618 4.89812 21.0676 5.58571 22.4322Z" fill="#8B5C2C"/>
<path d="M25.0652 15.4829C23.8428 15.4829 22.6357 15.4829 21.4134 15.4829C19.9312 15.4829 19.9312 17.8629 21.4134 17.8629C22.6357 17.8629 23.8428 17.8629 25.0652 17.8629C26.5473 17.8629 26.5473 15.4829 25.0652 15.4829Z" fill="#8B5C2C"/>
<path d="M5.79762 15.4829C4.57525 15.4829 3.36815 15.4829 2.14578 15.4829C0.663647 15.4829 0.663647 17.8629 2.14578 17.8629C3.36815 17.8629 4.57525 17.8629 5.79762 17.8629C7.27975 17.8629 7.27975 15.4829 5.79762 15.4829Z" fill="#8B5C2C"/>
<path d="M43.6614 7.64509C51.2248 7.64509 58.8036 7.64509 66.367 7.64509C68.8118 7.64509 71.2565 7.64509 73.7013 7.64509C75.1834 7.64509 75.1834 5.26514 73.7013 5.26514C66.1378 5.26514 58.5591 5.26514 50.9957 5.26514C48.5509 5.26514 46.1062 5.26514 43.6614 5.26514C42.1793 5.26514 42.1793 7.64509 43.6614 7.64509Z" fill="#8B5C2C"/>
<path d="M56.0224 14.0549C56.0224 10.8023 56.0224 7.5497 56.0224 4.31297C56.0224 2.77393 53.7305 2.77393 53.7305 4.31297C53.7305 7.56556 53.7305 10.8182 53.7305 14.0549C53.7305 15.5939 56.0224 15.5939 56.0224 14.0549Z" fill="#8B5C2C"/>
<path d="M56.267 16.6726C56.1906 18.529 53.5778 18.529 53.5014 16.6726C53.425 14.8321 56.1906 14.8321 56.267 16.6726C56.3282 18.1958 58.6201 18.2117 58.559 16.6726C58.4826 14.5307 56.9393 12.9441 54.8919 12.8647C52.8444 12.7854 51.3011 14.6735 51.2247 16.6726C51.1483 18.7987 52.9666 20.4012 54.8919 20.4806C56.9393 20.5599 58.4826 18.6718 58.559 16.6726C58.6048 15.1495 56.3129 15.1495 56.267 16.6726Z" fill="#8B5C2C"/>
<path d="M69.8964 13.9121C69.8964 10.6595 69.8964 7.40687 69.8964 4.15428C69.8964 2.61524 67.6045 2.61524 67.6045 4.15428C67.6045 7.40687 67.6045 10.6595 67.6045 13.9121C67.6045 15.4511 69.8964 15.4511 69.8964 13.9121Z" fill="#8B5C2C"/>
<path d="M70.1398 16.5301C70.0634 18.3864 67.4506 18.3864 67.3742 16.5301C67.2978 14.6896 70.0634 14.6896 70.1398 16.5301C70.201 18.0532 72.4929 18.0691 72.4318 16.5301C72.3554 14.3881 70.8121 12.8015 68.7647 12.7221C66.7172 12.6428 65.1739 14.5309 65.0975 16.5301C65.0211 18.6561 66.8394 20.2586 68.7647 20.338C70.8121 20.4173 72.3554 18.5292 72.4318 16.5301C72.4776 15.0069 70.1857 15.0069 70.1398 16.5301Z" fill="#8B5C2C"/>
</svg>
