<svg width="80" height="54" viewBox="0 0 80 54" fill="none" xmlns="http://www.w3.org/2000/svg">
<path d="M78.5317 29.2285H71.615V2.87634C71.615 1.95299 72.3626 1.20361 73.2877 1.20361H76.859C77.7823 1.20361 78.5317 1.95299 78.5317 2.87634V29.2285Z" stroke="#8B5C2C" stroke-width="1.5" stroke-miterlimit="10" stroke-linecap="round" stroke-linejoin="round"/>
<path d="M61.0605 36.1313V30.8856C61.0605 29.9623 61.8099 29.2129 62.7333 29.2129H78.5255V36.1313H61.0605Z" stroke="#8B5C2C" stroke-width="1.5" stroke-miterlimit="10" stroke-linecap="round" stroke-linejoin="round"/>
<path d="M78.5264 36.1313V52.7917" stroke="#8B5C2C" stroke-width="1.5" stroke-miterlimit="10" stroke-linecap="round" stroke-linejoin="round"/>
<path d="M61.0569 36.1313V52.7917" stroke="#8B5C2C" stroke-width="1.5" stroke-miterlimit="10" stroke-linecap="round" stroke-linejoin="round"/>
<path d="M0.75 29.2285H7.66664V2.87634C7.66664 1.95299 6.919 1.20361 5.99391 1.20361H2.42273C1.49938 1.20361 0.75 1.95299 0.75 2.87634V29.2285Z" stroke="#8B5C2C" stroke-width="1.5" stroke-miterlimit="10" stroke-linecap="round" stroke-linejoin="round"/>
<path d="M18.2214 36.1313V30.8856C18.2214 29.9623 17.4719 29.2129 16.5486 29.2129H0.756348V36.1313H18.2214Z" stroke="#8B5C2C" stroke-width="1.5" stroke-miterlimit="10" stroke-linecap="round" stroke-linejoin="round"/>
<path d="M0.755615 36.1313V52.7917" stroke="#8B5C2C" stroke-width="1.5" stroke-miterlimit="10" stroke-linecap="round" stroke-linejoin="round"/>
<path d="M18.2249 36.1313V52.7917" stroke="#8B5C2C" stroke-width="1.5" stroke-miterlimit="10" stroke-linecap="round" stroke-linejoin="round"/>
<path d="M62.5788 20.5049H16.7025C15.7792 20.5049 15.0298 19.7555 15.0298 18.8321V14.4613C15.0298 13.538 15.7792 12.7886 16.7025 12.7886H62.5788C63.502 12.7886 64.2515 13.538 64.2515 14.4613V18.8321C64.2515 19.7555 63.502 20.5049 62.5788 20.5049Z" stroke="#8B5C2C" stroke-width="1.5" stroke-miterlimit="10" stroke-linecap="round" stroke-linejoin="round"/>
<path d="M52.1013 21.3965V52.7919" stroke="#8B5C2C" stroke-width="1.5" stroke-miterlimit="10" stroke-linecap="round" stroke-linejoin="round"/>
<path d="M27.1804 21.3896V52.7851" stroke="#8B5C2C" stroke-width="1.5" stroke-miterlimit="10" stroke-linecap="round" stroke-linejoin="round"/>
<path d="M52.0942 41.9424H27.1873" stroke="#8B5C2C" stroke-width="1.5" stroke-miterlimit="10" stroke-linecap="round" stroke-linejoin="round"/>
<path d="M48.324 12.793C48.324 7.38171 44.1861 2.99414 39.0828 2.99414C33.9795 2.99414 29.8433 7.38171 29.8433 12.793H48.324Z" stroke="#8B5C2C" stroke-width="1.5" stroke-miterlimit="10" stroke-linecap="round" stroke-linejoin="round"/>
<path d="M39.6409 2.99479V0.75" stroke="#8B5C2C" stroke-width="1.5" stroke-miterlimit="10" stroke-linecap="round" stroke-linejoin="round"/>
</svg>
