<svg width="72" height="72" viewBox="0 0 72 72" fill="none" xmlns="http://www.w3.org/2000/svg">
<path d="M58.5 6H13.5C6.057 6 0 12.057 0 19.5V64.5C0 65.328 0.672 66 1.5 66C2.328 66 3 65.328 3 64.5V57H69V64.5C69 65.328 69.672 66 70.5 66C71.328 66 72 65.328 72 64.5V19.5C72 12.057 65.943 6 58.5 6ZM13.5 9H58.5C64.29 9 69 13.71 69 19.5V42H63V37.5C63 31.71 58.29 27 52.5 27H45C41.184 27 37.839 29.046 36 32.097C34.161 29.046 30.816 27 27 27H19.5C13.71 27 9 31.71 9 37.5V42H3V19.5C3 13.71 7.71 9 13.5 9ZM37.5 42V37.5C37.5 33.366 40.863 30 45 30H52.5C56.637 30 60 33.366 60 37.5V42H37.5ZM12 42V37.5C12 33.366 15.366 30 19.5 30H27C31.134 30 34.5 33.366 34.5 37.5V42H12ZM3 54V45H69V54H3Z" fill="#8B5C2C"/>
</svg>
