<svg width="70" height="70" viewBox="0 0 70 70" fill="none" xmlns="http://www.w3.org/2000/svg">
<path d="M59.5583 17.8208L36.3125 6.15415C35.4958 5.74582 34.5042 5.74582 33.6875 6.15415L10.4417 17.8208C9.53751 18.2583 8.95418 19.1333 8.83751 20.125C8.80834 20.4458 6.03751 51.5083 33.775 63.9042C34.15 64.0769 34.558 64.1663 34.9708 64.1663C35.3837 64.1663 35.7917 64.0769 36.1667 63.9042C63.9042 51.5083 61.1625 20.4167 61.1042 20.125C61.0576 19.6354 60.8855 19.166 60.6045 18.7624C60.3235 18.3587 59.943 18.0344 59.5 17.8208H59.5583ZM35 58.0417C15.3417 48.5042 14.4083 28.1166 14.5833 22.2833L35 12.0458L55.4167 22.2833C55.5333 28.0875 54.4542 48.5917 35 58.0417Z" fill="#8B5C2C"/>
<path d="M32.0834 36.7207L28.3209 32.929L24.1792 37.0707L32.0834 44.9457L45.8209 31.2374L41.6792 27.0957L32.0834 36.7207Z" fill="#8B5C2C"/>
</svg>
