<svg width="27" height="27" viewBox="0 0 27 27" fill="none" xmlns="http://www.w3.org/2000/svg">
<path d="M12.5389 26.5642C12.8096 26.8647 13.148 27 13.5 27C13.852 27 14.1904 26.8497 14.4611 26.5642L24.6141 15.2932C27.7953 11.7616 27.7953 6.20121 24.6141 2.65459C21.5005 -0.771798 16.6948 -0.876994 13.5 2.35403C10.3052 -0.876994 5.4995 -0.786826 2.38594 2.65459C-0.795312 6.20121 -0.795312 11.7616 2.38594 15.2932L12.5389 26.5642ZM4.30822 4.77354C5.37766 3.60136 6.73139 3.01526 8.09865 3.01526C9.46591 3.01526 10.8196 3.60136 11.8755 4.77354L12.5524 5.52495C13.0803 6.11104 13.9332 6.11104 14.4611 5.52495L15.138 4.77354C17.2498 2.42917 20.58 2.42917 22.7053 4.77354C24.8171 7.13294 24.8171 10.8148 22.7053 13.1592L13.5135 23.3632L4.32176 13.1592C3.81995 12.6122 3.42135 11.9597 3.14925 11.2398C2.87716 10.5199 2.73702 9.74707 2.73702 8.96636C2.73702 8.18566 2.87716 7.41279 3.14925 6.69289C3.42135 5.97299 3.81995 5.3205 4.32176 4.77354H4.30822Z" fill="#8B5C2C"/>
</svg>
