<svg width="27" height="27" viewBox="0 0 27 27" fill="none" xmlns="http://www.w3.org/2000/svg">
<path d="M20.1748 6.42505H20.1873M7.0498 0.800049H19.5498C23.0016 0.800049 25.7998 3.59827 25.7998 7.05005V19.55C25.7998 23.0018 23.0016 25.8 19.5498 25.8H7.0498C3.59802 25.8 0.799805 23.0018 0.799805 19.55V7.05005C0.799805 3.59827 3.59802 0.800049 7.0498 0.800049ZM18.2998 12.5125C18.4541 13.5529 18.2764 14.6153 17.792 15.5488C17.3076 16.4823 16.5412 17.2393 15.6018 17.7121C14.6624 18.185 13.5979 18.3495 12.5595 18.1825C11.5212 18.0154 10.562 17.5252 9.81835 16.7815C9.0747 16.0378 8.58447 15.0786 8.41739 14.0403C8.25031 13.002 8.41489 11.9374 8.88771 10.998C9.36054 10.0586 10.1175 9.29223 11.051 8.80785C11.9845 8.32348 13.047 8.14579 14.0873 8.30005C15.1485 8.45741 16.1309 8.95188 16.8894 9.71043C17.648 10.469 18.1424 11.4514 18.2998 12.5125Z" stroke="#8B5C2C" stroke-width="1.6" stroke-linecap="round" stroke-linejoin="round"/>
</svg>
