<svg width="71" height="71" viewBox="0 0 71 71" fill="none" xmlns="http://www.w3.org/2000/svg">
<path d="M61.5555 22.9375V10.375C61.5555 8.15381 60.7711 6.0236 59.375 4.45298C57.9789 2.88236 56.0854 2 54.111 2H16.8888C14.9144 2 13.0209 2.88236 11.6248 4.45298C10.2287 6.0236 9.44434 8.15381 9.44434 10.375V22.9375" stroke="#8B5C2C" stroke-width="4" stroke-linecap="round" stroke-linejoin="round"/>
<path d="M2 52.25C2 54.4712 2.78432 56.6014 4.18043 58.172C5.57653 59.7426 7.47006 60.625 9.44444 60.625H61.5556C63.5299 60.625 65.4235 59.7426 66.8196 58.172C68.2157 56.6014 69 54.4712 69 52.25V31.3125C69 29.0913 68.2157 26.9611 66.8196 25.3905C65.4235 23.8199 63.5299 22.9375 61.5556 22.9375C59.5812 22.9375 57.6876 23.8199 56.2915 25.3905C54.8954 26.9611 54.1111 29.0913 54.1111 31.3125V37.5938C54.1111 38.149 53.915 38.6816 53.566 39.0743C53.217 39.4669 52.7436 39.6875 52.25 39.6875H18.75C18.2564 39.6875 17.783 39.4669 17.434 39.0743C17.085 38.6816 16.8889 38.149 16.8889 37.5938V31.3125C16.8889 29.0913 16.1046 26.9611 14.7085 25.3905C13.3124 23.8199 11.4188 22.9375 9.44444 22.9375C7.47006 22.9375 5.57653 23.8199 4.18043 25.3905C2.78432 26.9611 2 29.0913 2 31.3125V52.25Z" stroke="#8B5C2C" stroke-width="4" stroke-linecap="round" stroke-linejoin="round"/>
<path d="M9.44434 60.625V69" stroke="#8B5C2C" stroke-width="4" stroke-linecap="round" stroke-linejoin="round"/>
<path d="M61.5557 60.625V69" stroke="#8B5C2C" stroke-width="4" stroke-linecap="round" stroke-linejoin="round"/>
</svg>
