<svg width="20" height="20" viewBox="0 0 20 20" fill="none" xmlns="http://www.w3.org/2000/svg">
<path d="M18.4445 20L11.4445 13C10.8889 13.4444 10.25 13.7963 9.52777 14.0556C8.80555 14.3148 8.03704 14.4444 7.22223 14.4444C5.20371 14.4444 3.49538 13.7454 2.09723 12.3472C0.699081 10.9491 0 9.24074 0 7.22222C0 5.2037 0.699081 3.49537 2.09723 2.09722C3.49538 0.699074 5.20371 0 7.22223 0C9.24075 0 10.9491 0.699074 12.3472 2.09722C13.7454 3.49537 14.4445 5.2037 14.4445 7.22222C14.4445 8.03704 14.3148 8.80556 14.0555 9.52778C13.7963 10.25 13.4444 10.8889 13 11.4444L20 18.4444L18.4445 20ZM7.22223 12.2222C8.61112 12.2222 9.79166 11.7361 10.7639 10.7639C11.7361 9.79167 12.2222 8.61111 12.2222 7.22222C12.2222 5.83333 11.7361 4.65278 10.7639 3.68056C9.79166 2.70833 8.61112 2.22222 7.22223 2.22222C5.83334 2.22222 4.65276 2.70833 3.68054 3.68056C2.70832 4.65278 2.22223 5.83333 2.22223 7.22222C2.22223 8.61111 2.70832 9.79167 3.68054 10.7639C4.65276 11.7361 5.83334 12.2222 7.22223 12.2222Z" fill="#8B5C2C"/>
</svg>
