<svg width="58" height="58" viewBox="0 0 58 58" fill="none" xmlns="http://www.w3.org/2000/svg">
<circle cx="29" cy="29" r="28.5" stroke="#8B5C2C"/>
<path d="M41.3591 21.4604C41.3039 21.3863 41.2346 21.3239 41.1552 21.2766C41.0759 21.2294 40.9879 21.1982 40.8965 21.1849C40.8051 21.1716 40.712 21.1765 40.6224 21.1992C40.5329 21.222 40.4487 21.2621 40.3747 21.3174L29.033 29.7833C28.9924 29.8137 28.9431 29.8301 28.8924 29.8301C28.8416 29.8301 28.7923 29.8137 28.7517 29.7833L17.6327 21.2799C17.5593 21.2239 17.4755 21.1829 17.3863 21.1592C17.297 21.1356 17.204 21.1297 17.1125 21.142C17.0209 21.1543 16.9327 21.1845 16.8529 21.2309C16.773 21.2773 16.7031 21.3389 16.6471 21.4123C16.5911 21.4857 16.5501 21.5695 16.5264 21.6587C16.5027 21.748 16.4969 21.841 16.5092 21.9326C16.5215 22.0241 16.5517 22.1123 16.5981 22.1921C16.6445 22.272 16.7061 22.3419 16.7795 22.3979L25.522 29.0848L16.8756 35.6006C16.8011 35.6562 16.7383 35.7259 16.6908 35.8057C16.6432 35.8855 16.6118 35.9739 16.5985 36.0659C16.5851 36.1578 16.5899 36.2515 16.6128 36.3416C16.6356 36.4317 16.6759 36.5164 16.7315 36.5909C16.787 36.6654 16.8567 36.7282 16.9365 36.7757C17.0164 36.8233 17.1048 36.8547 17.1968 36.868C17.2887 36.8814 17.3824 36.8766 17.4725 36.8537C17.5626 36.8309 17.6473 36.7906 17.7217 36.735L26.6821 29.9708L27.8962 30.9083C28.1793 31.125 28.5253 31.2436 28.8818 31.2461C29.2383 31.2487 29.5859 31.135 29.8721 30.9224L31.1471 29.9708L40.213 36.735C40.287 36.7903 40.3712 36.8304 40.4607 36.8531C40.5503 36.8758 40.6434 36.8807 40.7348 36.8674C40.8262 36.8541 40.9141 36.823 40.9935 36.7757C41.0728 36.7285 41.1421 36.6661 41.1974 36.5921C41.2526 36.518 41.2928 36.4338 41.3155 36.3443C41.3382 36.2548 41.3431 36.1616 41.3298 36.0702C41.3165 35.9788 41.2853 35.8909 41.2381 35.8116C41.1909 35.7322 41.1284 35.6629 41.0544 35.6076L32.3214 29.0825L41.2161 22.4378C41.3637 22.3263 41.4614 22.1613 41.4881 21.9784C41.5149 21.7955 41.4685 21.6094 41.3591 21.4604Z" fill="#8B5C2C"/>
<path d="M40.4844 18.4531H17.5156C16.5832 18.4531 15.689 18.8235 15.0297 19.4828C14.3704 20.1421 14 21.0363 14 21.9688V36.0313C14 36.9637 14.3704 37.8579 15.0297 38.5172C15.689 39.1765 16.5832 39.5469 17.5156 39.5469H40.4844C41.4168 39.5469 42.311 39.1765 42.9703 38.5172C43.6296 37.8579 44 36.9637 44 36.0313V21.9688C44 21.0363 43.6296 20.1421 42.9703 19.4828C42.311 18.8235 41.4168 18.4531 40.4844 18.4531ZM42.5938 36.0313C42.5938 36.5907 42.3715 37.1272 41.9759 37.5228C41.5803 37.9184 41.0438 38.1406 40.4844 38.1406H17.5156C16.9562 38.1406 16.4197 37.9184 16.0241 37.5228C15.6285 37.1272 15.4062 36.5907 15.4062 36.0313V21.9688C15.4062 21.4093 15.6285 20.8728 16.0241 20.4772C16.4197 20.0816 16.9562 19.8594 17.5156 19.8594H40.4844C41.0438 19.8594 41.5803 20.0816 41.9759 20.4772C42.3715 20.8728 42.5938 21.4093 42.5938 21.9688V36.0313Z" fill="#8B5C2C"/>
</svg>
