<svg width="58" height="58" viewBox="0 0 58 58" fill="none" xmlns="http://www.w3.org/2000/svg">
<path d="M32.1147 37.4697L39.1 27.6692C39.1229 27.6375 39.142 27.6041 39.1569 27.5696C40.3631 25.8532 41 23.8926 41 21.8908C41 15.8856 35.4008 11 28.5184 11C21.6361 11 16.0363 15.8856 16.0363 21.8908C16.0363 23.893 16.6742 25.8544 17.8813 27.572C17.8953 27.6021 17.9116 27.6314 17.9312 27.6598L24.6658 37.4941C19.4379 38.1388 16 40.0145 16 42.2899C16 45.1091 21.4907 47.317 28.4998 47.317C35.5088 47.317 40.9995 45.1087 40.9995 42.2899C41 40.004 37.4018 38.0864 32.1147 37.4697ZM19.136 27.0228C18.0225 25.4764 17.4341 23.7019 17.4341 21.8908C17.4341 16.558 22.4062 12.2196 28.5184 12.2196C34.6301 12.2196 39.6023 16.558 39.6023 21.8908C39.6023 23.7027 39.0138 25.4772 37.9008 27.0228C37.8775 27.0553 37.8584 27.0891 37.843 27.124L30.4631 37.477C30.3522 37.6254 30.3303 37.6591 30.1947 37.8535L28.3311 40.4682L19.1984 27.1326C19.1821 27.0948 19.1612 27.0578 19.136 27.0228ZM28.5002 46.0974C21.9575 46.0974 17.3982 44.0904 17.3982 42.2899C17.3982 40.6556 20.8319 39.1157 25.4504 38.6389L27.7194 41.9525C27.8447 42.135 28.0693 42.2476 28.3129 42.2492C28.3148 42.2492 28.3171 42.2492 28.319 42.2492C28.5603 42.2492 28.7849 42.1403 28.9126 41.9614L31.298 38.6149C35.9901 39.0584 39.6018 40.6373 39.6018 42.2899C39.6023 44.0908 35.0429 46.0974 28.5002 46.0974Z" fill="#8B5C2C"/>
<path d="M33.0382 21.8906C33.0382 19.7072 31.0022 17.9307 28.4998 17.9307C25.9974 17.9307 23.9614 19.7072 23.9614 21.8906C23.9614 24.0741 25.9974 25.8506 28.4998 25.8506C31.0022 25.8506 33.0382 24.0741 33.0382 21.8906ZM25.3591 21.8906C25.3591 20.3796 26.768 19.1502 28.4998 19.1502C30.2316 19.1502 31.6405 20.3796 31.6405 21.8906C31.6405 23.4017 30.232 24.631 28.4998 24.631C26.7676 24.631 25.3591 23.4017 25.3591 21.8906Z" fill="#8B5C2C"/>
<circle cx="29" cy="29" r="28.5" stroke="#8B5C2C"/>
</svg>
