<svg width="83" height="83" viewBox="0 0 83 83" fill="none" xmlns="http://www.w3.org/2000/svg">
<path d="M77.0489 37.4496H74.7913C74.4178 35.5738 72.8491 34.4616 70.9982 34.0383C72.2764 28.0706 73.4882 22.078 74.7166 16.102C74.8494 15.4546 74.534 14.7408 73.8451 14.5665C68.4501 13.2219 63.0385 11.9354 57.6352 10.6074C57.6186 10.6074 57.6103 10.6074 57.602 10.6074C56.2989 9.10506 54.5393 7.93476 52.7382 7.43676C50.9786 6.94706 48.1815 7.03006 46.9614 7.46166C46.2642 7.71066 45.9488 8.54066 46.3887 9.07186C46.8286 9.60306 56.0499 21.1318 56.4566 21.6298C57.104 22.4349 58.2411 21.8539 58.5399 21.082C59.2205 19.2975 59.8347 17.347 59.677 15.4131C59.6272 14.774 59.4861 14.1598 59.2869 13.5705C63.5448 14.608 67.7944 15.6372 72.044 16.6913C70.8654 22.4183 69.7034 28.1536 68.475 33.8723C67.1802 33.9885 65.9435 34.3952 65.0388 35.1007C64.2669 35.6983 63.7606 36.5117 63.5697 37.4413H54.199V36.8105C55.0622 36.7607 55.9502 36.5615 56.6641 36.0801C57.3945 35.5904 58.0004 34.86 58.1913 33.9802C58.3739 33.1253 58.2494 32.2538 57.8095 31.4902C57.3364 30.6602 56.5645 30.1124 55.693 29.7638C54.9045 29.4484 53.9168 29.4318 52.9457 29.4401C50.7379 29.4733 48.9202 29.4401 46.9116 29.4401C46.2393 29.4401 45.6666 30.0128 45.6666 30.6851V37.4247C44.6623 37.4247 43.5999 37.4247 42.4794 37.4247V34.362C42.4794 33.6897 41.9067 33.117 41.2344 33.117H39.6076V23.6218C39.6076 21.7045 39.4333 19.9117 37.9891 18.4592C36.6445 17.1063 34.9347 16.8407 33.1253 16.8407H21.6464C20.2769 16.8407 18.8659 16.7245 17.5711 17.2557C15.3135 18.1853 14.1432 20.3267 14.1349 22.7005C14.1183 26.1699 14.1349 29.6476 14.1349 33.117H12.5081C11.8358 33.117 11.2631 33.6897 11.2631 34.362V37.3915C8.52405 37.3998 6.61505 37.4164 6.04235 37.4413C6.00085 37.4413 5.95935 37.4413 5.91785 37.4413C5.24555 37.4413 4.67285 38.014 4.67285 38.6863V74.6585C4.67285 76.2604 7.16285 76.2604 7.16285 74.6585V50.2565H49.1443V74.6585C49.1443 75.3308 49.717 75.9035 50.3893 75.9035H77.0489C77.7212 75.9035 78.2939 75.3308 78.2939 74.6585V38.6946C78.2939 38.0223 77.7212 37.4496 77.0489 37.4496ZM49.8415 9.43706C52.0078 9.43706 54.2239 10.4829 55.5934 12.0599C56.4732 13.0725 57.1538 14.3175 57.2119 15.6787C57.2451 16.5336 57.104 17.3802 56.8882 18.2019C54.5393 15.2803 52.1904 12.3587 49.8415 9.43706ZM69.0809 36.3374C70.5832 36.3374 71.6622 36.8105 72.1353 37.4496H66.2174C66.7569 36.7026 67.7695 36.3374 69.0809 36.3374ZM55.8092 33.1419C55.8092 33.6814 55.4689 34.3371 54.2239 34.3371V31.9467C55.3278 31.9467 55.8092 32.3783 55.8092 33.1419ZM17.2723 20.5093C18.2102 19.2892 19.5631 19.3307 20.9243 19.3307C24.5514 19.3307 33.9221 19.1813 34.8682 19.4303C36.7358 19.9117 37.1342 21.58 37.1342 23.2483V33.1253H16.6498V24.3024C16.6498 23.0408 16.4506 21.5883 17.2723 20.5176V20.5093ZM14.4586 35.607H39.3337C39.7072 35.607 40.0143 35.9141 40.0143 36.2876V37.4164C31.4653 37.3998 20.8745 37.3749 13.778 37.3832V36.2876C13.778 35.9141 14.0851 35.607 14.4586 35.607ZM49.136 47.7665H7.19605V40.9439C7.19605 40.3878 7.64425 39.9313 8.20865 39.9313H49.1443V47.7582L49.136 47.7665ZM48.1732 37.4413V32.8099C48.1732 32.3285 48.5633 31.9384 49.0447 31.9384H51.7173V37.4496C50.7711 37.4496 49.5676 37.4496 48.1732 37.4496V37.4413ZM74.7913 73.4218H52.6385C52.0825 73.4218 51.626 72.9736 51.626 72.4092V60.0339H75.7956V72.4092C75.7956 72.9653 75.3474 73.4218 74.783 73.4218H74.7913ZM75.8039 57.5522H51.6343V50.2648H75.8039V57.5522ZM75.8039 47.7748H51.6343V39.9479C56.4649 39.9479 70.8488 39.9811 74.8079 39.9977C75.364 39.9977 75.8122 40.4542 75.8122 41.0103V47.7831L75.8039 47.7748Z" fill="#8B5C2C"/>
<path d="M60.4489 45.1189H67.2217C67.8691 45.1189 68.4999 44.5462 68.4667 43.8739C68.4335 43.2016 67.9189 42.6289 67.2217 42.6289H60.4489C59.8015 42.6289 59.1707 43.2016 59.2039 43.8739C59.2371 44.5462 59.7517 45.1189 60.4489 45.1189Z" fill="#8B5C2C"/>
<path d="M60.4489 55.1453H67.2217C67.8691 55.1453 68.4999 54.5726 68.4667 53.9003C68.4335 53.228 67.9189 52.6553 67.2217 52.6553H60.4489C59.8015 52.6553 59.1707 53.228 59.2039 53.9003C59.2371 54.5726 59.7517 55.1453 60.4489 55.1453Z" fill="#8B5C2C"/>
<path d="M60.4489 65.1135H67.2217C67.8691 65.1135 68.4999 64.5408 68.4667 63.8685C68.4335 63.1962 67.9189 62.6235 67.2217 62.6235H60.4489C59.8015 62.6235 59.1707 63.1962 59.2039 63.8685C59.2371 64.5408 59.7517 65.1135 60.4489 65.1135Z" fill="#8B5C2C"/>
</svg>
