<svg width="70" height="70" viewBox="0 0 70 70" fill="none" xmlns="http://www.w3.org/2000/svg">
<path d="M58.1583 22.4001L58.0708 22.1376C57.9416 21.8158 57.7423 21.5268 57.4875 21.2917L42.9041 6.70838C42.6416 6.44588 42.35 6.27088 42.0583 6.12505L41.7958 6.03755C41.5529 5.94716 41.2966 5.89787 41.0375 5.89172C40.9791 5.89172 40.9208 5.86255 40.8625 5.86255H17.5C14.2916 5.86255 11.6666 8.48755 11.6666 11.6959V58.3626C11.6666 61.5709 14.2916 64.1959 17.5 64.1959H52.5C55.7083 64.1959 58.3333 61.5709 58.3333 58.3626V23.3626C58.3333 23.3626 58.3041 23.2459 58.3041 23.1875C58.3041 22.925 58.2458 22.6917 58.1583 22.4292V22.4001ZM17.5 58.3334V11.6667H37.9166V23.3334C37.9166 24.9375 39.2291 26.25 40.8333 26.25H52.5V58.3334H17.5Z" fill="#8B5C2C"/>
<path d="M23.3334 32.0834H46.6667V37.9167H23.3334V32.0834ZM23.3334 43.7501H46.6667V49.5834H23.3334V43.7501ZM23.3334 20.4167H32.0834V26.2501H23.3334V20.4167Z" fill="#8B5C2C"/>
</svg>
