<svg width="35" height="35" viewBox="0 0 35 35" fill="none" xmlns="http://www.w3.org/2000/svg">
<rect x="0.5" y="0.5" width="34" height="34" rx="9.5" stroke="#8B5C2C"/>
<path d="M7.41412 6.08591C7.02348 5.69554 6.55206 5.5 6.00013 5.5C5.44798 5.5 4.97661 5.69571 4.58591 6.08591C4.19543 6.47661 4 6.94804 4 7.50013C4 8.25006 4.33318 8.82306 4.99993 9.21885V29.0001C4.99993 29.1356 5.04929 29.2528 5.14846 29.3517C5.24735 29.4506 5.36458 29.5 5.49997 29.5H6.4999C6.6353 29.5 6.75247 29.451 6.85141 29.3517C6.95042 29.2528 6.99984 29.1356 6.99984 29.0001V9.21885C7.66669 8.82284 7.99976 8.25 7.99976 7.50013C7.99976 6.9482 7.80455 6.47683 7.41412 6.08591Z" fill="#8B5C2C"/>
<path d="M30.7034 7.79744C30.5053 7.59949 30.2708 7.50049 29.9999 7.50049C29.8647 7.50049 29.5808 7.60978 29.1485 7.82863C28.7163 8.04749 28.2578 8.29218 27.7734 8.56297C27.2895 8.83382 26.7161 9.07845 26.0549 9.2973C25.3935 9.51616 24.7814 9.62545 24.2192 9.62545C23.6981 9.62545 23.2398 9.52645 22.8437 9.32861C21.5312 8.71396 20.391 8.25556 19.422 7.95347C18.4533 7.65143 17.4118 7.50049 16.2971 7.50049C14.37 7.50049 12.1773 8.12537 9.71905 9.37534C9.11469 9.67744 8.7033 9.90144 8.48456 10.0472C8.16156 10.2869 8 10.5732 8 10.9066V22.5002C8 22.771 8.09917 23.0057 8.29712 23.2033C8.49479 23.4014 8.72935 23.5004 9.0002 23.5004C9.16679 23.5004 9.33842 23.4536 9.51568 23.3599C12.349 21.8389 14.7657 21.0786 16.7657 21.0786C17.526 21.0786 18.2682 21.1932 18.9919 21.4222C19.7159 21.6514 20.3175 21.9015 20.7966 22.1721C21.2761 22.4429 21.8409 22.6931 22.492 22.9223C23.1433 23.151 23.7865 23.2658 24.4218 23.2658C26.0261 23.2658 27.948 22.6618 30.1874 21.4533C30.4689 21.3075 30.6743 21.1645 30.8045 21.0238C30.9348 20.8832 31 20.6828 31 20.422V8.5002C31.0001 8.22946 30.9012 7.99528 30.7034 7.79744Z" fill="#8B5C2C"/>
</svg>
