<svg width="35" height="35" viewBox="0 0 35 35" fill="none" xmlns="http://www.w3.org/2000/svg">
<rect x="0.5" y="0.5" width="34" height="34" rx="9.5" stroke="#8B5C2C"/>
<path d="M27.91 23.9411L27.8105 23.6412C27.5747 22.9404 26.8019 22.2095 26.092 22.017L23.4644 21.2992C22.7518 21.1053 21.7354 21.366 21.2141 21.8873L20.2631 22.8382C16.8071 21.9044 14.097 19.1942 13.1644 15.7389L14.1154 14.7879C14.6368 14.2665 14.8974 13.2514 14.7035 12.5389L13.987 9.91001C13.7932 9.19876 13.061 8.42597 12.3615 8.1928L12.0616 8.09195C11.3608 7.85877 10.3614 8.09459 9.84008 8.61589L8.41757 10.0397C8.16344 10.2925 8.00102 11.0155 8.00102 11.0182C7.95127 15.5345 9.72218 19.8858 12.9169 23.0805C16.1037 26.2673 20.4387 28.0357 24.9419 27.9977C24.9655 27.9977 25.7094 27.8379 25.9636 27.585L27.3861 26.1625C27.9074 25.6413 28.1432 24.6419 27.91 23.9411Z" fill="#8B5C2C"/>
</svg>
