<svg width="27" height="27" viewBox="0 0 27 27" fill="none" xmlns="http://www.w3.org/2000/svg">
<path d="M27 13.5C27 20.9558 21.1635 27 13.9637 27C6.76396 27 0.927412 20.9558 0.927412 13.5C0.927412 6.04416 6.76396 0 13.9637 0C21.1635 0 27 6.04416 27 13.5Z" fill="#8B5C2C"/>
<path d="M0 25.1584L1.90671 18.017L7.10943 24.3253L0 25.1584Z" fill="#8B5C2C"/>
<path d="M25.2687 13.3443C25.2687 19.7964 20.2178 25.027 13.9873 25.027C7.75671 25.027 2.70585 19.7964 2.70585 13.3443C2.70585 6.8921 7.75671 1.66158 13.9873 1.66158C20.2178 1.66158 25.2687 6.8921 25.2687 13.3443Z" fill="#242424"/>
<path d="M1.90445 23.4333L3.55449 17.2532L8.05684 22.7123L1.90445 23.4333Z" fill="#242424"/>
<path d="M18.5561 20.1229H18.812C19.1558 20.1088 19.4702 19.9405 19.6677 19.6739L21.2327 17.506C21.4009 17.2745 21.4668 16.9868 21.4082 16.7062C21.3497 16.4255 21.1815 16.187 20.9402 16.0256L17.5468 13.8578C17.3675 13.7421 17.1559 13.681 16.9398 13.6824C16.64 13.6824 16.3475 13.7946 16.1354 14.0191L15.0603 15.1346C14.5557 14.8329 13.8829 14.3839 13.3344 13.8578C12.8078 13.3526 12.3325 12.7072 12.0034 12.202L13.1662 11.1707C13.5611 10.8199 13.6342 10.2446 13.3344 9.81665L11.0746 6.56131C10.9137 6.32979 10.6577 6.16141 10.3652 6.1123C10.2228 6.08496 10.076 6.08579 9.9339 6.11475C9.7918 6.1437 9.65736 6.20016 9.53879 6.28068L7.27899 7.78206C6.99377 7.97149 6.82557 8.27317 6.81094 8.60291C6.789 9.087 6.69393 13.4438 10.2336 16.8395C13.4148 19.8913 17.4079 20.1299 18.5561 20.1299V20.1229ZM10.3725 11.739C10.2555 11.8442 10.2189 12.0126 10.2921 12.1529C10.3286 12.2161 11.1331 13.7245 12.2959 14.847C13.466 15.9695 15.0384 16.7412 15.1042 16.7763C15.2505 16.8465 15.426 16.8184 15.5357 16.6992L16.991 15.1908L19.814 16.9938L18.5707 18.7197C17.7224 18.7197 14.0877 18.5513 11.2647 15.8432C8.4418 13.1351 8.26628 9.64125 8.26628 8.83443L10.0654 7.64175L11.9449 10.3498L10.3725 11.746V11.739Z" fill="#8B5C2C"/>
</svg>
